PathFileType	4	(X/Y/Z)	C:\Users\Public\Documents\Vicon Data\AADs Machine\Fixing_spring_distance_56\90_lb_Spring\Brian_90_01.trc
DataRate	CameraRate	NumFrames	NumMarkers	Units	OrigDataRate	OrigDataStartFrame	OrigNumFrames
100.0	100.0	19	8	mm	100.0	977	1302	
Frame#	Time	SpringTop			MMAL			LMAL			Shank			Heel			Foot			Toe			MP5			
		X1	Y1	Z1	X2	Y2	Z2	X3	Y3	Z3	X4	Y4	Z4	X5	Y5	Z5	X6	Y6	Z6	X7	Y7	Z7	X8	Y8	Z8	
977	9.76	-351.25549	151.49728	-613.32916	-288.73822	101.91501	-674.8465	-271.91629	110.93849	-551.99884	-197.81717	266.84497	-625.84625	-356.32355	86.485283	-608.93799	-179.36887	57.20715	-614.30322	-104.98676	38.023327	-629.97534	-165.00104	39.666824	-562.07172
978	9.77	-351.29199	151.43834	-613.24841	-288.70782	101.94209	-674.88379	-271.87854	110.92757	-551.98694	-197.89865	266.96381	-625.84839	-356.32974	86.496208	-608.93274	-179.34641	57.237885	-614.30359	-104.98555	38.061569	-629.97284	-165.01508	39.70261	-562.06439
979	9.78	-351.08807	151.46274	-613.15948	-288.7421	101.88265	-674.88123	-271.86774	110.93115	-551.98187	-197.99086	266.96036	-625.87769	-356.32309	86.451965	-608.95386	-179.27901	57.144161	-614.41107	-104.98347	38.024948	-629.9928	-165.00688	39.680603	-562.08203
980	9.79	-351.12137	151.43053	-613.20349	-288.76422	101.89415	-674.88898	-271.94135	110.92962	-552.00043	-198.14276	267.02185	-625.88983	-356.36087	86.436607	-608.97357	-179.37086	57.22139	-614.2959	-105.0029	38.040791	-629.98511	-165.02431	39.680241	-562.05878
981	9.8	-351.16452	151.44519	-613.15613	-288.73413	101.90978	-674.88098	-271.91745	110.95088	-552.01703	-198.58571	267.19595	-625.56024	-356.3407	86.458984	-608.98114	-179.36475	57.261368	-614.30908	-104.96452	38.077541	-630.0022	-165.02446	39.72353	-562.08258
982	9.81	-351.17706	151.37764	-613.14948	-288.74026	101.90601	-674.91119	-271.91464	110.95462	-552.00299	-198.66135	267.24219	-625.56793	-356.34427	86.456459	-608.97192	-179.3652	57.243492	-614.31567	-104.98997	38.051178	-629.9801	-165.01958	39.734829	-562.05878
983	9.82	-351.20837	151.30609	-613.15326	-288.76382	101.8711	-674.89581	-271.91592	110.94269	-552.01044	-198.58237	267.23315	-625.82166	-356.35635	86.390358	-608.98529	-179.3609	57.209892	-614.30798	-104.9615	38.032635	-629.99609	-165.01387	39.690033	-562.06995
984	9.83	-351.28595	151.31938	-613.14423	-288.74155	101.92872	-674.87256	-271.94363	110.9575	-552.01025	-198.74094	267.34576	-625.76514	-356.39484	86.403854	-608.95905	-179.38759	57.259422	-614.3045	-105.0004	38.085411	-629.98651	-165.05791	39.740242	-562.04944
985	9.84	-351.25351	151.28577	-613.07538	-288.73483	101.94619	-674.86279	-271.95343	110.94626	-551.99829	-198.85942	267.45294	-625.74036	-356.36887	86.437355	-608.93347	-179.36687	57.256039	-614.30267	-105.00729	38.093636	-629.98834	-165.03767	39.740105	-562.04352
986	9.85	-351.3114	151.18822	-613.07642	-288.72763	101.94356	-674.85126	-271.91394	110.9244	-551.99774	-199.02388	267.50784	-625.67615	-356.37686	86.372475	-608.9494	-179.39772	57.229912	-614.28607	-104.98688	38.080204	-629.97278	-165.03918	39.725647	-562.05206
987	9.86	-351.4559	151.15666	-612.99963	-288.73444	101.9025	-674.81317	-271.9743	110.92037	-551.95306	-199.17307	267.52789	-625.63544	-356.371	86.349648	-608.93237	-179.38994	57.249043	-614.27887	-105.00224	38.070454	-629.97064	-165.0681	39.685932	-562.03149
988	9.87	-351.46872	151.18481	-612.94366	-288.75198	102.01189	-674.78571	-271.95807	110.92909	-551.98444	-199.29501	267.67191	-625.53931	-356.37186	86.438347	-608.909	-179.39868	57.285599	-614.26648	-105.0015	38.128143	-629.95734	-165.07483	39.755371	-562.04456
989	9.88	-351.42145	151.07045	-612.9621	-288.77249	101.99653	-674.75256	-271.9418	110.8966	-551.95264	-199.41264	267.7106	-625.4953	-356.34918	86.344025	-608.89227	-179.38219	57.262039	-614.25122	-105.00407	38.112347	-629.95166	-165.01668	39.708939	-562.04089
990	9.89	-351.54697	151.0199	-612.87427	-288.75543	101.97389	-674.74622	-271.94052	110.87469	-551.92859	-199.54692	267.74725	-625.42096	-356.38022	86.317108	-608.92426	-179.31467	57.170551	-614.39197	-105.02244	38.094833	-629.97528	-165.05901	39.687256	-562.04907
991	9.9	-351.59271	151.01257	-612.83185	-288.75134	102.01404	-674.7132	-272.01709	110.90516	-551.91663	-199.68671	267.84393	-625.38062	-356.41971	86.351967	-608.89215	-179.38644	57.268539	-614.24878	-105.0296	38.135937	-629.96265	-165.05753	39.724651	-562.04559
992	9.91	-351.62909	150.94777	-612.76343	-288.76154	102.02393	-674.69434	-271.98053	110.87177	-551.90149	-199.8398	267.88812	-625.30432	-356.38364	86.34996	-608.87378	-179.36789	57.265118	-614.23889	-105.03302	38.136219	-629.93042	-165.04007	39.703995	-562.01819
993	9.92	-351.69116	150.87064	-612.74799	-288.77875	102.01012	-674.68036	-271.9599	110.88004	-551.92511	-199.95201	267.95078	-625.30157	-356.4028	86.328842	-608.84021	-179.38632	57.266663	-614.2522	-105.03587	38.149139	-629.94116	-165.02269	39.715996	-562.03717
994	9.93	-351.74887	150.81943	-612.69739	-288.78824	102.0134	-674.68048	-272.00284	110.87972	-551.8927	-200.09915	268.00903	-625.3092	-356.42996	86.29612	-608.8479	-179.40442	57.259495	-614.25775	-105.04215	38.163052	-629.94794	-165.06737	39.709927	-562.03192
995	9.94	-351.82617	150.7856	-612.65942	-288.77161	102.05001	-674.66583	-271.99231	110.88393	-551.89917	-200.27573	268.08282	-625.25018	-356.44852	86.341705	-608.84082	-179.38626	57.260761	-614.24286	-105.04514	38.164707	-629.94806	-165.07503	39.734428	-562.02686
